<svg width="200" height="69" viewBox="0 0 200 69" fill="none" xmlns="http://www.w3.org/2000/svg">
<g clip-path="url(#clip0_2503_2287)">
<path d="M23.2597 66.0035L1.16739 52.9704C0.447764 52.5466 0 51.771 0 50.9315V25.257C0 23.434 1.96696 22.2986 3.54213 23.2101L25.9943 36.1553C26.7379 36.587 27.1857 37.3786 27.1777 38.2342L26.8179 63.9966C26.7939 65.8116 24.8189 66.9231 23.2518 66.0035H23.2597Z" fill="#F9CD0C"/>
<path d="M35.0702 29.6062L11.7705 42.8792C10.4192 43.6468 8.74805 42.6713 8.74805 41.1201V14.5741C8.74805 13.8385 9.14784 13.1588 9.7955 12.799L32.6395 0.253633C33.9748 -0.48198 35.6139 0.469519 35.6379 1.98872L36.0936 27.8151C36.1096 28.5507 35.7178 29.2464 35.0702 29.6062Z" fill="#00B438"/>
<path fill-rule="evenodd" clip-rule="evenodd" d="M24.7918 35.4612L11.7705 42.879C10.4192 43.6466 8.74805 42.6711 8.74805 41.1199V26.2109L24.7918 35.4612Z" fill="#008202"/>
<path d="M41.4659 28.7479C41.4659 23.5107 43.8166 21 49.0139 21C49.9494 21 50.8769 21.08 51.3646 21.1999L51.3247 24.9339C50.797 24.854 50.1893 24.774 49.3737 24.774C47.0629 24.774 45.8396 25.2618 45.8396 29.2756V30.8188H51.1568V34.6728H45.8396V51.1921H41.4579V34.6728H36.8203V30.8188H41.4579V28.7479H41.4659ZM55.0987 21.4478H59.5204V51.1921H55.0987V21.4478Z" fill="#030000"/>
<path d="M64.0293 41.0055C64.0293 34.7128 68.7388 30.3711 74.8236 30.3711C80.9084 30.3711 85.6179 34.7128 85.6179 41.0055C85.6179 47.2982 80.9084 51.6399 74.8236 51.6399C68.7388 51.6399 64.0293 47.2982 64.0293 41.0055ZM81.1963 41.0055C81.1963 37.0716 78.4377 34.313 74.8236 34.313C71.2095 34.313 68.4909 37.0716 68.4909 41.0055C68.4909 44.9394 71.2095 47.658 74.8236 47.658C78.4377 47.658 81.1963 44.9394 81.1963 41.0055Z" fill="#030000"/>
<path d="M112.277 30.8184H116.906L111.021 51.1917H106.56L102.018 36.7033L97.4364 51.1917H92.9747L87.0898 30.8184H91.7194L95.4135 45.9145L99.9551 30.8184H104.057L108.638 45.9545L112.293 30.8184H112.277Z" fill="#030000"/>
<path d="M147.163 25.9902H151.481L144.556 51.1929H140.239L134.562 32.3788L128.885 51.1929H124.567L117.643 25.9902H121.96L126.926 45.8757L132.531 25.9902H136.561L142.198 45.8757L147.163 25.9902Z" fill="#030000"/>
<path d="M153.289 24.4543C153.289 23.119 154.344 22.1035 155.768 22.1035C157.191 22.1035 158.246 23.119 158.246 24.4543C158.246 25.7896 157.191 26.885 155.768 26.885C154.344 26.885 153.289 25.8296 153.289 24.4543ZM153.937 51.1922V30.8189H157.591V51.1922H153.937Z" fill="#030000"/>
<path d="M160.797 46.3625L164.163 44.8993C164.931 46.6823 166.642 48.3055 170.008 48.3055C172.767 48.3055 174.022 47.4499 174.022 45.387C174.022 43.8038 173.047 43.0362 169.153 42.3886C164.523 41.621 161.805 40.1178 161.805 36.5836C161.805 32.2419 165.419 30.3789 169.512 30.3789C173.207 30.3789 175.965 31.9221 177.3 34.5607L173.974 36.1039C173.247 34.6407 172.063 33.7052 169.512 33.7052C166.962 33.7052 165.499 34.5207 165.499 36.3837C165.499 37.847 166.922 38.6146 170.08 39.1023C174.91 39.8299 177.708 41.1332 177.708 45.2671C177.708 49.4009 174.91 51.6397 169.92 51.6397C165.211 51.6397 162.044 49.4888 160.789 46.3625H160.797Z" fill="#030000"/>
<path d="M199.92 42.5487H183.241C183.809 46.0348 186.407 48.3136 190.381 48.3136C192.9 48.3136 194.923 47.3781 196.106 45.3472L199.472 46.8104C197.729 50.1367 194.195 51.6399 190.301 51.6399C183.729 51.6399 179.467 47.2582 179.467 41.0055C179.467 34.7528 183.888 30.3711 189.893 30.3711C195.898 30.3711 200 34.7528 200 41.0055C200 41.5332 199.96 42.0609 199.92 42.5487ZM183.281 39.3823H196.386C195.858 35.9362 193.507 33.6973 190.053 33.6973C186.599 33.6973 183.888 35.9681 183.273 39.3823H183.281Z" fill="#030000"/>
<path d="M39.8984 65.6709V56.5599H43.3863C44.0447 56.5599 44.5919 56.6637 45.0278 56.8713C45.4668 57.0759 45.7945 57.3562 46.011 57.7121C46.2305 58.068 46.3402 58.4713 46.3402 58.9222C46.3402 59.2929 46.269 59.6102 46.1267 59.8742C45.9843 60.1352 45.793 60.3472 45.5528 60.5104C45.3126 60.6735 45.0442 60.7906 44.7476 60.8618V60.9508C45.0709 60.9686 45.3808 61.0679 45.6774 61.2488C45.9769 61.4268 46.2216 61.6789 46.4114 62.0051C46.6012 62.3314 46.6961 62.7258 46.6961 63.1885C46.6961 63.6601 46.5819 64.0842 46.3536 64.4608C46.1252 64.8345 45.7812 65.1296 45.3215 65.3461C44.8618 65.5626 44.2834 65.6709 43.5865 65.6709H39.8984ZM41.5489 64.2918H43.324C43.9231 64.2918 44.3546 64.1776 44.6186 63.9492C44.8855 63.7179 45.0189 63.4213 45.0189 63.0595C45.0189 62.7896 44.9522 62.5464 44.8188 62.3299C44.6853 62.1104 44.4955 61.9384 44.2493 61.8138C44.0032 61.6863 43.7095 61.6225 43.3685 61.6225H41.5489V64.2918ZM41.5489 60.4347H43.1816C43.4663 60.4347 43.7229 60.3828 43.9513 60.279C44.1796 60.1723 44.3591 60.0225 44.4895 59.8297C44.623 59.634 44.6897 59.4026 44.6897 59.1357C44.6897 58.7828 44.5652 58.4921 44.316 58.2637C44.0699 58.0354 43.7036 57.9212 43.2172 57.9212H41.5489V60.4347ZM50.3145 68.2334C50.095 68.2334 49.8919 68.2156 49.705 68.18C49.5212 68.1474 49.3743 68.1088 49.2646 68.0643L49.6383 66.8098C49.8726 66.878 50.0817 66.9106 50.2656 66.9076C50.4495 66.9047 50.6111 66.8468 50.7505 66.7341C50.8928 66.6244 51.013 66.4405 51.1108 66.1825L51.2487 65.8133L48.7708 58.8376H50.4791L52.054 63.9982H52.1251L53.7045 58.8376H55.4172L52.6812 66.4984C52.5537 66.8602 52.3847 67.1701 52.1741 67.4282C51.9635 67.6891 51.7055 67.8879 51.4 68.0243C51.0975 68.1637 50.7357 68.2334 50.3145 68.2334ZM70.0144 59.634H68.3506C68.3032 59.3611 68.2157 59.1194 68.0881 58.9088C67.9606 58.6953 67.8019 58.5144 67.6121 58.3661C67.4223 58.2178 67.2058 58.1066 66.9626 58.0324C66.7224 57.9553 66.4629 57.9167 66.1841 57.9167C65.6888 57.9167 65.2498 58.0413 64.8672 58.2904C64.4846 58.5366 64.1851 58.8984 63.9686 59.3759C63.7521 59.8505 63.6438 60.4303 63.6438 61.1154C63.6438 61.8124 63.7521 62.3996 63.9686 62.8771C64.1881 63.3516 64.4876 63.7105 64.8672 63.9537C65.2498 64.1939 65.6873 64.314 66.1796 64.314C66.4525 64.314 66.7075 64.2784 66.9448 64.2073C67.185 64.1331 67.4001 64.0249 67.5899 63.8825C67.7826 63.7401 67.9443 63.5652 68.0748 63.3576C68.2082 63.1499 68.3002 62.9127 68.3506 62.6458L70.0144 62.6547C69.9522 63.0877 69.8172 63.494 69.6096 63.8736C69.405 64.2532 69.1365 64.5884 68.8044 64.879C68.4722 65.1667 68.0837 65.3921 67.6388 65.5552C67.1939 65.7154 66.7001 65.7955 66.1574 65.7955C65.3566 65.7955 64.6418 65.6101 64.0131 65.2394C63.3843 64.8686 62.889 64.3333 62.5272 63.6334C62.1654 62.9334 61.9845 62.0941 61.9845 61.1154C61.9845 60.1337 62.1669 59.2944 62.5316 58.5974C62.8964 57.8975 63.3932 57.3621 64.022 56.9914C64.6507 56.6207 65.3625 56.4353 66.1574 56.4353C66.6645 56.4353 67.1361 56.5065 67.5721 56.6488C68.0081 56.7912 68.3966 57.0003 68.7376 57.2761C69.0787 57.549 69.359 57.8841 69.5785 58.2815C69.8009 58.676 69.9462 59.1268 70.0144 59.634ZM74.6738 65.8088C74.2408 65.8088 73.8508 65.7317 73.5038 65.5775C73.1598 65.4203 72.8869 65.189 72.6852 64.8835C72.4865 64.578 72.3872 64.2013 72.3872 63.7535C72.3872 63.3679 72.4583 63.0491 72.6007 62.797C72.7431 62.5449 72.9373 62.3432 73.1835 62.192C73.4297 62.0407 73.707 61.9265 74.0154 61.8494C74.3268 61.7694 74.6486 61.7115 74.9808 61.6759C75.3812 61.6344 75.7059 61.5973 75.9551 61.5647C76.2042 61.5291 76.3851 61.4757 76.4978 61.4046C76.6135 61.3304 76.6713 61.2162 76.6713 61.062V61.0353C76.6713 60.7002 76.572 60.4407 76.3732 60.2568C76.1745 60.0729 75.8883 59.981 75.5146 59.981C75.1202 59.981 74.8073 60.067 74.5759 60.239C74.3476 60.411 74.1934 60.6142 74.1133 60.8485L72.6096 60.6349C72.7282 60.2197 72.924 59.8727 73.1968 59.5939C73.4697 59.3122 73.8034 59.1016 74.1978 58.9622C74.5923 58.8198 75.0282 58.7487 75.5057 58.7487C75.8349 58.7487 76.1627 58.7872 76.4889 58.8643C76.8151 58.9414 77.1132 59.069 77.3831 59.2469C77.653 59.4219 77.8695 59.6606 78.0326 59.9632C78.1987 60.2657 78.2818 60.6438 78.2818 61.0976V65.6709H76.7336V64.7322H76.6802C76.5823 64.922 76.4444 65.1 76.2665 65.2661C76.0915 65.4292 75.8705 65.5612 75.6036 65.662C75.3396 65.7599 75.0297 65.8088 74.6738 65.8088ZM75.092 64.6254C75.4153 64.6254 75.6955 64.5617 75.9328 64.4341C76.1701 64.3037 76.3525 64.1316 76.48 63.9181C76.6105 63.7046 76.6758 63.4717 76.6758 63.2196V62.4144C76.6253 62.4559 76.5393 62.4945 76.4177 62.5301C76.2991 62.5657 76.1656 62.5968 76.0173 62.6235C75.8691 62.6502 75.7222 62.6739 75.5769 62.6947C75.4316 62.7155 75.3055 62.7332 75.1988 62.7481C74.9585 62.7807 74.7435 62.8341 74.5537 62.9082C74.3639 62.9824 74.2141 63.0862 74.1044 63.2196C73.9946 63.3501 73.9398 63.5192 73.9398 63.7268C73.9398 64.0234 74.048 64.2473 74.2645 64.3986C74.481 64.5498 74.7569 64.6254 75.092 64.6254ZM86.5546 60.6438L85.0866 60.804C85.045 60.6557 84.9724 60.5163 84.8686 60.3858C84.7677 60.2553 84.6313 60.15 84.4593 60.0699C84.2873 59.9899 84.0767 59.9498 83.8276 59.9498C83.4924 59.9498 83.2107 60.0225 82.9823 60.1678C82.7569 60.3131 82.6457 60.5015 82.6486 60.7328C82.6457 60.9315 82.7183 61.0931 82.8666 61.2177C83.0179 61.3423 83.267 61.4446 83.614 61.5247L84.7796 61.7738C85.4261 61.9132 85.9066 62.1341 86.221 62.4367C86.5383 62.7392 86.6985 63.1351 86.7014 63.6245C86.6985 64.0545 86.5724 64.4341 86.3233 64.7634C86.0771 65.0896 85.7346 65.3447 85.2956 65.5285C84.8567 65.7124 84.3525 65.8044 83.7831 65.8044C82.9467 65.8044 82.2735 65.6294 81.7633 65.2794C81.2532 64.9265 80.9492 64.4356 80.8513 63.8069L82.4218 63.6556C82.4929 63.9641 82.6442 64.1969 82.8755 64.3541C83.1069 64.5113 83.4079 64.5899 83.7786 64.5899C84.1612 64.5899 84.4682 64.5113 84.6995 64.3541C84.9338 64.1969 85.051 64.0026 85.051 63.7713C85.051 63.5755 84.9753 63.4139 84.8241 63.2864C84.6758 63.1588 84.4444 63.061 84.1301 62.9928L82.9645 62.7481C82.3091 62.6116 81.8241 62.3818 81.5098 62.0585C81.1954 61.7323 81.0397 61.32 81.0426 60.8218C81.0397 60.4006 81.1539 60.0358 81.3852 59.7274C81.6195 59.416 81.9443 59.1757 82.3595 59.0067C82.7777 58.8347 83.2596 58.7487 83.8053 58.7487C84.6061 58.7487 85.2363 58.9192 85.696 59.2603C86.1587 59.6013 86.4449 60.0625 86.5546 60.6438ZM90.8926 61.667V65.6709H89.2822V56.5599H90.857V59.9988H90.9371C91.0972 59.6132 91.3449 59.3092 91.68 59.0868C92.0181 58.8614 92.4482 58.7487 92.9702 58.7487C93.4447 58.7487 93.8584 58.848 94.2114 59.0467C94.5643 59.2454 94.8372 59.5361 95.0299 59.9187C95.2257 60.3013 95.3236 60.7684 95.3236 61.32V65.6709H93.7131V61.5692C93.7131 61.1095 93.5945 60.7521 93.3572 60.497C93.1229 60.239 92.7937 60.11 92.3696 60.11C92.0849 60.11 91.8298 60.1723 91.6044 60.2968C91.382 60.4184 91.207 60.5949 91.0794 60.8262C90.9549 61.0576 90.8926 61.3378 90.8926 61.667ZM101.679 58.8376V60.0833H97.6396V58.8376H101.679ZM98.6494 65.6709V58.1926C98.6494 57.7329 98.7443 57.3503 98.9342 57.0448C99.1269 56.7393 99.385 56.5109 99.7082 56.3597C100.032 56.2084 100.391 56.1328 100.785 56.1328C101.064 56.1328 101.311 56.155 101.528 56.1995C101.744 56.244 101.905 56.2841 102.008 56.3196L101.688 57.5653C101.62 57.5445 101.534 57.5238 101.43 57.503C101.326 57.4793 101.211 57.4674 101.083 57.4674C100.784 57.4674 100.571 57.5401 100.447 57.6854C100.325 57.8278 100.265 58.0324 100.265 58.2993V65.6709H98.6494ZM104.193 65.6709V58.8376H105.755V59.9765H105.826C105.95 59.5821 106.164 59.2781 106.467 59.0645C106.772 58.848 107.12 58.7398 107.512 58.7398C107.601 58.7398 107.7 58.7442 107.81 58.7531C107.923 58.759 108.016 58.7694 108.09 58.7842V60.2657C108.022 60.2419 107.914 60.2212 107.766 60.2034C107.62 60.1826 107.479 60.1723 107.343 60.1723C107.049 60.1723 106.785 60.236 106.551 60.3635C106.32 60.4881 106.137 60.6616 106.004 60.8841C105.87 61.1065 105.804 61.363 105.804 61.6537V65.6709H104.193ZM113.157 65.8044C112.472 65.8044 111.88 65.662 111.382 65.3773C110.886 65.0896 110.505 64.6833 110.238 64.1583C109.971 63.6304 109.838 63.0091 109.838 62.2943C109.838 61.5914 109.971 60.9745 110.238 60.4436C110.508 59.9098 110.885 59.4946 111.368 59.198C111.852 58.8984 112.42 58.7487 113.072 58.7487C113.493 58.7487 113.891 58.8169 114.264 58.9533C114.641 59.0868 114.973 59.2944 115.261 59.5761C115.552 59.8579 115.78 60.2167 115.946 60.6527C116.112 61.0857 116.195 61.6018 116.195 62.2009V62.6947H110.594V61.6092H114.652C114.649 61.3007 114.582 61.0264 114.451 60.7862C114.321 60.543 114.138 60.3517 113.904 60.2123C113.673 60.0729 113.403 60.0032 113.094 60.0032C112.765 60.0032 112.476 60.0833 112.227 60.2434C111.978 60.4006 111.784 60.6082 111.644 60.8663C111.508 61.1213 111.438 61.4016 111.435 61.7071V62.6547C111.435 63.0521 111.508 63.3931 111.653 63.6779C111.798 63.9596 112.002 64.1761 112.263 64.3274C112.524 64.4757 112.829 64.5498 113.179 64.5498C113.413 64.5498 113.625 64.5172 113.815 64.4519C114.005 64.3837 114.17 64.2844 114.309 64.1539C114.448 64.0234 114.554 63.8617 114.625 63.669L116.129 63.838C116.034 64.2354 115.853 64.5824 115.586 64.879C115.322 65.1726 114.984 65.401 114.571 65.5641C114.159 65.7243 113.688 65.8044 113.157 65.8044ZM121.836 65.8044C121.15 65.8044 120.559 65.662 120.061 65.3773C119.565 65.0896 119.184 64.6833 118.917 64.1583C118.65 63.6304 118.517 63.0091 118.517 62.2943C118.517 61.5914 118.65 60.9745 118.917 60.4436C119.187 59.9098 119.564 59.4946 120.047 59.198C120.531 58.8984 121.099 58.7487 121.751 58.7487C122.172 58.7487 122.57 58.8169 122.943 58.9533C123.32 59.0868 123.652 59.2944 123.94 59.5761C124.23 59.8579 124.459 60.2167 124.625 60.6527C124.791 61.0857 124.874 61.6018 124.874 62.2009V62.6947H119.273V61.6092H123.33C123.327 61.3007 123.261 61.0264 123.13 60.7862C123 60.543 122.817 60.3517 122.583 60.2123C122.352 60.0729 122.082 60.0032 121.773 60.0032C121.444 60.0032 121.155 60.0833 120.906 60.2434C120.657 60.4006 120.462 60.6082 120.323 60.8663C120.187 61.1213 120.117 61.4016 120.114 61.7071V62.6547C120.114 63.0521 120.187 63.3931 120.332 63.6779C120.477 63.9596 120.68 64.1761 120.941 64.3274C121.202 64.4757 121.508 64.5498 121.858 64.5498C122.092 64.5498 122.304 64.5172 122.494 64.4519C122.684 64.3837 122.848 64.2844 122.988 64.1539C123.127 64.0234 123.232 63.8617 123.304 63.669L124.807 63.838C124.712 64.2354 124.532 64.5824 124.265 64.879C124.001 65.1726 123.663 65.401 123.25 65.5641C122.838 65.7243 122.366 65.8044 121.836 65.8044ZM131.921 65.6709V56.5599H135.337C136.037 56.5599 136.624 56.6904 137.099 56.9514C137.576 57.2124 137.937 57.5712 138.18 58.028C138.426 58.4817 138.549 58.9978 138.549 59.5761C138.549 60.1604 138.426 60.6794 138.18 61.1332C137.934 61.587 137.571 61.9443 137.09 62.2053C136.61 62.4634 136.018 62.5924 135.315 62.5924H133.051V61.2355H135.093C135.502 61.2355 135.837 61.1643 136.098 61.022C136.359 60.8796 136.552 60.6839 136.676 60.4347C136.804 60.1856 136.868 59.8994 136.868 59.5761C136.868 59.2528 136.804 58.9681 136.676 58.722C136.552 58.4758 136.358 58.2845 136.094 58.1481C135.833 58.0087 135.496 57.939 135.084 57.939H133.571V65.6709H131.921ZM143.008 65.8088C142.575 65.8088 142.185 65.7317 141.838 65.5775C141.494 65.4203 141.222 65.189 141.02 64.8835C140.821 64.578 140.722 64.2013 140.722 63.7535C140.722 63.3679 140.793 63.0491 140.935 62.797C141.078 62.5449 141.272 62.3432 141.518 62.192C141.764 62.0407 142.042 61.9265 142.35 61.8494C142.661 61.7694 142.983 61.7115 143.315 61.6759C143.716 61.6344 144.041 61.5973 144.29 61.5647C144.539 61.5291 144.72 61.4757 144.832 61.4046C144.948 61.3304 145.006 61.2162 145.006 61.062V61.0353C145.006 60.7002 144.907 60.4407 144.708 60.2568C144.509 60.0729 144.223 59.981 143.849 59.981C143.455 59.981 143.142 60.067 142.911 60.239C142.682 60.411 142.528 60.6142 142.448 60.8485L140.944 60.6349C141.063 60.2197 141.259 59.8727 141.532 59.5939C141.804 59.3122 142.138 59.1016 142.532 58.9622C142.927 58.8198 143.363 58.7487 143.84 58.7487C144.17 58.7487 144.497 58.7872 144.824 58.8643C145.15 58.9414 145.448 59.069 145.718 59.2469C145.988 59.4219 146.204 59.6606 146.367 59.9632C146.533 60.2657 146.616 60.6438 146.616 61.0976V65.6709H145.068V64.7322H145.015C144.917 64.922 144.779 65.1 144.601 65.2661C144.426 65.4292 144.205 65.5612 143.938 65.662C143.674 65.7599 143.364 65.8088 143.008 65.8088ZM143.427 64.6254C143.75 64.6254 144.03 64.5617 144.267 64.4341C144.505 64.3037 144.687 64.1316 144.815 63.9181C144.945 63.7046 145.01 63.4717 145.01 63.2196V62.4144C144.96 62.4559 144.874 62.4945 144.752 62.5301C144.634 62.5657 144.5 62.5968 144.352 62.6235C144.204 62.6502 144.057 62.6739 143.912 62.6947C143.766 62.7155 143.64 62.7332 143.533 62.7481C143.293 62.7807 143.078 62.8341 142.888 62.9082C142.699 62.9824 142.549 63.0862 142.439 63.2196C142.329 63.3501 142.274 63.5192 142.274 63.7268C142.274 64.0234 142.383 64.2473 142.599 64.3986C142.816 64.5498 143.092 64.6254 143.427 64.6254ZM150.245 68.2334C150.025 68.2334 149.822 68.2156 149.635 68.18C149.451 68.1474 149.305 68.1088 149.195 68.0643L149.569 66.8098C149.803 66.878 150.012 66.9106 150.196 66.9076C150.38 66.9047 150.541 66.8468 150.681 66.7341C150.823 66.6244 150.943 66.4405 151.041 66.1825L151.179 65.8133L148.701 58.8376H150.409L151.984 63.9982H152.055L153.635 58.8376H155.348L152.612 66.4984C152.484 66.8602 152.315 67.1701 152.104 67.4282C151.894 67.6891 151.636 67.8879 151.33 68.0243C151.028 68.1637 150.666 68.2334 150.245 68.2334ZM157.715 65.6709V58.8376H159.254V59.9988H159.334C159.476 59.6073 159.712 59.3018 160.041 59.0823C160.371 58.8599 160.764 58.7487 161.22 58.7487C161.683 58.7487 162.073 58.8614 162.39 59.0868C162.711 59.3092 162.936 59.6132 163.067 59.9988H163.138C163.289 59.6191 163.544 59.3166 163.903 59.0912C164.265 58.8628 164.693 58.7487 165.189 58.7487C165.817 58.7487 166.33 58.9474 166.728 59.3448C167.125 59.7422 167.324 60.322 167.324 61.0842V65.6709H165.709V61.3334C165.709 60.9093 165.596 60.5993 165.371 60.4036C165.146 60.2049 164.87 60.1055 164.544 60.1055C164.155 60.1055 163.851 60.2271 163.632 60.4703C163.415 60.7106 163.307 61.0234 163.307 61.409V65.6709H161.727V61.2666C161.727 60.9137 161.621 60.632 161.407 60.4214C161.197 60.2108 160.921 60.1055 160.58 60.1055C160.348 60.1055 160.138 60.1648 159.948 60.2835C159.758 60.3991 159.607 60.5637 159.494 60.7773C159.381 60.9879 159.325 61.234 159.325 61.5158V65.6709H157.715ZM173.236 65.8044C172.551 65.8044 171.959 65.662 171.461 65.3773C170.965 65.0896 170.584 64.6833 170.317 64.1583C170.05 63.6304 169.917 63.0091 169.917 62.2943C169.917 61.5914 170.05 60.9745 170.317 60.4436C170.587 59.9098 170.964 59.4946 171.447 59.198C171.931 58.8984 172.499 58.7487 173.151 58.7487C173.572 58.7487 173.97 58.8169 174.343 58.9533C174.72 59.0868 175.052 59.2944 175.34 59.5761C175.631 59.8579 175.859 60.2167 176.025 60.6527C176.191 61.0857 176.274 61.6018 176.274 62.2009V62.6947H170.673V61.6092H174.73C174.728 61.3007 174.661 61.0264 174.53 60.7862C174.4 60.543 174.217 60.3517 173.983 60.2123C173.752 60.0729 173.482 60.0032 173.173 60.0032C172.844 60.0032 172.555 60.0833 172.306 60.2434C172.057 60.4006 171.863 60.6082 171.723 60.8663C171.587 61.1213 171.517 61.4016 171.514 61.7071V62.6547C171.514 63.0521 171.587 63.3931 171.732 63.6779C171.877 63.9596 172.081 64.1761 172.342 64.3274C172.602 64.4757 172.908 64.5498 173.258 64.5498C173.492 64.5498 173.704 64.5172 173.894 64.4519C174.084 64.3837 174.249 64.2844 174.388 64.1539C174.527 64.0234 174.633 63.8617 174.704 63.669L176.207 63.838C176.113 64.2354 175.932 64.5824 175.665 64.879C175.401 65.1726 175.063 65.401 174.65 65.5641C174.238 65.7243 173.767 65.8044 173.236 65.8044ZM180.5 61.667V65.6709H178.889V58.8376H180.429V59.9988H180.509C180.666 59.6162 180.917 59.3122 181.261 59.0868C181.608 58.8614 182.036 58.7487 182.546 58.7487C183.018 58.7487 183.429 58.8495 183.779 59.0512C184.131 59.2528 184.404 59.545 184.597 59.9276C184.793 60.3102 184.889 60.7743 184.886 61.32V65.6709H183.276V61.5692C183.276 61.1124 183.157 60.755 182.92 60.497C182.686 60.239 182.361 60.11 181.946 60.11C181.664 60.11 181.413 60.1723 181.194 60.2968C180.977 60.4184 180.807 60.5949 180.682 60.8262C180.561 61.0576 180.5 61.3378 180.5 61.667ZM191.188 58.8376V60.0833H187.26V58.8376H191.188ZM188.23 57.2005H189.84V63.6156C189.84 63.8321 189.873 63.9982 189.938 64.1138C190.006 64.2265 190.095 64.3037 190.205 64.3452C190.315 64.3867 190.437 64.4075 190.57 64.4075C190.671 64.4075 190.763 64.4 190.846 64.3852C190.932 64.3704 190.997 64.357 191.042 64.3452L191.313 65.6042C191.227 65.6338 191.104 65.6664 190.944 65.702C190.786 65.7376 190.594 65.7584 190.365 65.7643C189.962 65.7762 189.599 65.7154 189.275 65.5819C188.952 65.4455 188.696 65.2349 188.506 64.9502C188.319 64.6655 188.227 64.3096 188.23 63.8825V57.2005ZM199.091 60.6438L197.623 60.804C197.581 60.6557 197.509 60.5163 197.405 60.3858C197.304 60.2553 197.168 60.15 196.996 60.0699C196.824 59.9899 196.613 59.9498 196.364 59.9498C196.029 59.9498 195.747 60.0225 195.519 60.1678C195.293 60.3131 195.182 60.5015 195.185 60.7328C195.182 60.9315 195.255 61.0931 195.403 61.2177C195.554 61.3423 195.803 61.4446 196.15 61.5247L197.316 61.7738C197.962 61.9132 198.443 62.1341 198.757 62.4367C199.075 62.7392 199.235 63.1351 199.238 63.6245C199.235 64.0545 199.109 64.4341 198.86 64.7634C198.613 65.0896 198.271 65.3447 197.832 65.5285C197.393 65.7124 196.889 65.8044 196.319 65.8044C195.483 65.8044 194.81 65.6294 194.3 65.2794C193.789 64.9265 193.485 64.4356 193.388 63.8069L194.958 63.6556C195.029 63.9641 195.18 64.1969 195.412 64.3541C195.643 64.5113 195.944 64.5899 196.315 64.5899C196.697 64.5899 197.004 64.5113 197.236 64.3541C197.47 64.1969 197.587 64.0026 197.587 63.7713C197.587 63.5755 197.512 63.4139 197.36 63.2864C197.212 63.1588 196.981 63.061 196.666 62.9928L195.501 62.7481C194.845 62.6116 194.36 62.3818 194.046 62.0585C193.732 61.7323 193.576 61.32 193.579 60.8218C193.576 60.4006 193.69 60.0358 193.921 59.7274C194.156 59.416 194.481 59.1757 194.896 59.0067C195.314 58.8347 195.796 58.7487 196.342 58.7487C197.142 58.7487 197.773 58.9192 198.232 59.2603C198.695 59.6013 198.981 60.0625 199.091 60.6438Z" fill="#030000"/>
</g>
<defs>
<clipPath id="clip0_2503_2287">
<rect width="200" height="69" fill="white"/>
</clipPath>
</defs>
</svg>
