<svg width="37" height="67" viewBox="0 0 37 67" fill="none" xmlns="http://www.w3.org/2000/svg">
<path d="M23.2597 66.0054L1.16739 52.9723C0.447764 52.5485 0 51.7729 0 50.9334V25.2589C0 23.4359 1.96696 22.3005 3.54213 23.212L25.9943 36.1572C26.7379 36.5889 27.1857 37.3805 27.1777 38.2361L26.8179 63.9985C26.7939 65.8135 24.8189 66.925 23.2518 66.0054H23.2597Z" fill="#F9CD0C"/>
<path d="M35.0722 29.6062L11.7725 42.8792C10.4212 43.6468 8.75 42.6713 8.75 41.1201V14.5741C8.75 13.8385 9.14979 13.1588 9.79745 12.799L32.6414 0.253633C33.9767 -0.48198 35.6159 0.469519 35.6399 1.98872L36.0956 27.8151C36.1116 28.5507 35.7198 29.2464 35.0722 29.6062Z" fill="#00B438"/>
<path fill-rule="evenodd" clip-rule="evenodd" d="M24.7938 35.4612L11.7725 42.879C10.4212 43.6466 8.75 42.6711 8.75 41.1199V26.2109L24.7938 35.4612Z" fill="#008202"/>
</svg>
