<svg width="308" height="217" viewBox="0 0 308 217" fill="none" xmlns="http://www.w3.org/2000/svg">
	<path
		d="M56.8192 109.577C58.541 108.007 60.3819 108.288 61.324 108.591C62.1578 106.447 63.9555 104 67.8105 104C74.6868 104 75.2282 110.757 75.2282 110.757C80.0687 109.295 81 113.573 81 113.746H55C55 110.985 56.8192 109.577 56.8192 109.577Z"
		fill="white" />
	<path
		d="M216.468 130.064C217.657 130.064 218.775 130.392 219.749 130.945C221.604 127.716 225.018 125.543 228.934 125.543C232.594 125.543 235.813 127.429 237.73 130.31C238.745 126.845 241.871 124.312 245.593 124.312C249.806 124.312 253.271 127.572 253.743 131.755C254.081 131.704 254.43 131.663 254.778 131.663C257.351 131.663 259.576 133.149 260.693 135.333H209.969C210.666 132.309 213.311 130.053 216.468 130.053V130.064Z"
		fill="white" />
	<path
		d="M184.045 7.01204C185.981 7.01204 187.551 5.44234 187.551 3.50602C187.551 1.5697 185.981 0 184.045 0C182.109 0 180.539 1.5697 180.539 3.50602C180.539 5.44234 182.109 7.01204 184.045 7.01204Z"
		fill="#EBF5FF" />
	<path
		d="M220.877 66.627L219.472 65.8786C219.38 65.8273 219.308 65.7556 219.267 65.6736L218.519 64.2691C218.324 63.9103 217.822 63.9103 217.627 64.2691L216.879 65.6736C216.827 65.7658 216.756 65.8376 216.674 65.8786L215.269 66.627C214.91 66.8217 214.91 67.3241 215.269 67.5188L216.674 68.2672C216.766 68.3185 216.838 68.3902 216.879 68.4722L217.627 69.8767C217.822 70.2355 218.324 70.2355 218.519 69.8767L219.267 68.4722C219.318 68.38 219.39 68.3082 219.472 68.2672L220.877 67.5188C221.235 67.3241 221.235 66.8217 220.877 66.627Z"
		fill="#EBF5FF" />
	<path
		d="M73.9068 44.7052L71.9487 43.6493C71.8257 43.5878 71.7232 43.4853 71.6617 43.3622L70.6058 41.4042C70.3393 40.9121 69.6319 40.9121 69.3654 41.4042L68.3095 43.3622C68.2479 43.4853 68.1454 43.5878 68.0224 43.6493L66.0644 44.7052C65.5723 44.9717 65.5723 45.6791 66.0644 45.9456L68.0224 47.0015C68.1454 47.063 68.2479 47.1656 68.3095 47.2886L69.3654 49.2466C69.6319 49.7387 70.3393 49.7387 70.6058 49.2466L71.6617 47.2886C71.7232 47.1656 71.8257 47.063 71.9487 47.0015L73.9068 45.9456C74.3989 45.6791 74.3989 44.9717 73.9068 44.7052Z"
		fill="#84B4FE" />
	<path d="M165 136H144V216H165V136Z" fill="white" />
	<path
		d="M162.48 141.551C162.48 137.43 159.138 134.078 155.007 134.078C150.875 134.078 147.533 137.42 147.533 141.551C147.533 141.551 146.57 159.215 155.007 168.615C163.444 159.215 162.48 141.551 162.48 141.551Z"
		fill="#EBF5FF" />
	<mask id="mask0_6163_155135" style="mask-type:luminance" maskUnits="userSpaceOnUse" x="0"
		y="157" width="308" height="60">
		<path d="M307.71 157H0V216.551H307.71V157Z" fill="white" />
	</mask>
	<g mask="url(#mask0_6163_155135)">
		<path
			d="M139.349 250.839C152.473 250.839 163.112 240.346 163.112 227.404C163.112 214.461 152.473 203.969 139.349 203.969C126.225 203.969 115.586 214.461 115.586 227.404C115.586 240.346 126.225 250.839 139.349 250.839Z"
			fill="white" />
		<path
			d="M212.05 248.4C223.81 248.4 233.343 239.001 233.343 227.405C233.343 215.81 223.81 206.41 212.05 206.41C200.291 206.41 190.758 215.81 190.758 227.405C190.758 239.001 200.291 248.4 212.05 248.4Z"
			fill="white" />
		<path
			d="M176.93 225.63C186.124 225.63 193.578 218.282 193.578 209.217C193.578 200.153 186.124 192.805 176.93 192.805C167.735 192.805 160.281 200.153 160.281 209.217C160.281 218.282 167.735 225.63 176.93 225.63Z"
			fill="white" />
		<path
			d="M146.594 210.685C152.998 210.685 158.189 205.568 158.189 199.255C158.189 192.942 152.998 187.824 146.594 187.824C140.191 187.824 135 192.942 135 199.255C135 205.568 140.191 210.685 146.594 210.685Z"
			fill="white" />
		<path
			d="M176.159 197.623C180.535 197.623 184.083 194.126 184.083 189.812C184.083 185.497 180.535 182 176.159 182C171.782 182 168.234 185.497 168.234 189.812C168.234 194.126 171.782 197.623 176.159 197.623Z"
			fill="white" />
		<path
			d="M168.045 218.7C175.801 218.7 182.089 212.499 182.089 204.85C182.089 197.201 175.801 191 168.045 191C160.288 191 154 197.201 154 204.85C154 212.499 160.288 218.7 168.045 218.7Z"
			fill="white" />
		<path
			d="M101.497 269.895C119.28 269.895 133.697 255.685 133.697 238.157C133.697 220.628 119.28 206.418 101.497 206.418C83.7133 206.418 69.2969 220.628 69.2969 238.157C69.2969 255.685 83.7133 269.895 101.497 269.895Z"
			fill="white" />
		<path
			d="M258.96 304.629C284.092 304.629 304.466 284.539 304.466 259.758C304.466 234.976 284.092 214.887 258.96 214.887C233.827 214.887 213.453 234.976 213.453 259.758C213.453 284.539 233.827 304.629 258.96 304.629Z"
			fill="white" />
		<path
			d="M184.782 280.979C204.768 280.979 220.969 265.007 220.969 245.304C220.969 225.601 204.768 209.629 184.782 209.629C164.796 209.629 148.594 225.601 148.594 245.304C148.594 265.007 164.796 280.979 184.782 280.979Z"
			fill="white" />
	</g>
	<path d="M201.153 75.6121L178.513 65.5039V109.047L208.18 127.708L201.153 75.6121Z"
		fill="#7C6AEA" />
	<path d="M107.346 75.6121L127.796 65.5039V109.047L101 127.708L107.346 75.6121Z" fill="#7C6AEA" />
	<path
		d="M153.633 127.755V118.458V109.162V10C153.633 10 139.174 16.1571 129.342 45.4034C123.685 62.2283 121.119 77.9376 119.679 94.4426C118.753 105.049 119.269 116.134 120.016 127.755H126.739V133.952H134.62V140.15H153.633V133.952V127.755Z"
		fill="#DBD6FF" />
	<path
		d="M153.633 127.755V118.458V109.162L153.633 10C153.633 10 168.493 16.1571 178.599 45.4034C184.412 62.2283 187.049 77.9376 188.53 94.4426C189.482 105.049 188.952 116.134 188.184 127.755L181.274 127.755V133.952H173.174V140.15H153.633V133.952V127.755Z"
		fill="#F2F0FF" />
	<path
		d="M146.004 149.719C151.088 149.719 154.608 149.719 163.211 149.719C172.68 149.719 165.557 176.998 163.211 176.998C160.865 176.998 154.608 187.998 154.608 187.998C154.608 187.998 149.524 176.998 146.004 176.998C142.485 176.998 137.22 149.719 146.004 149.719Z"
		fill="white" />
	<path
		d="M147.496 149.719C151.696 149.719 154.603 149.719 161.71 149.719C169.532 149.719 163.649 170.178 161.71 170.178C159.772 170.178 154.603 178.428 154.603 178.428C154.603 178.428 150.404 170.178 147.496 170.178C144.589 170.178 140.239 149.719 147.496 149.719Z"
		fill="#A799FF" />
	<path
		d="M149.742 149.719C152.615 149.719 154.604 149.719 159.467 149.719C164.819 149.719 160.793 163.359 159.467 163.359C158.141 163.359 154.604 168.858 154.604 168.858C154.604 168.858 151.731 163.359 149.742 163.359C147.752 163.359 144.777 149.719 149.742 149.719Z"
		fill="#EDEAFF" />
	<path d="M138.32 140.152H169.901L167.987 151.636H141.191L138.32 140.152Z"
		fill="url(#paint0_linear_6163_155135)" />
	<path
		d="M138.625 42.5469C138.625 50.9435 145.432 57.7501 153.828 57.7501C162.225 57.7501 169.031 50.9435 169.031 42.5469C169.031 34.1504 162.225 27.3438 153.828 27.3438C145.432 27.3438 138.625 34.1504 138.625 42.5469Z"
		fill="url(#paint1_linear_6163_155135)" />
	<path d="M146.75 76.712L153.449 66.4609L160.148 76.712L153.449 142.063L146.75 76.712Z"
		fill="#7C6AEA" />
	<mask id="mask1_6163_155135" style="mask-type:alpha" maskUnits="userSpaceOnUse" x="144" y="33"
		width="20" height="20">
		<rect x="144" y="33" width="19.4113" height="19.4113" fill="#D9D9D9" />
	</mask>
	<g mask="url(#mask1_6163_155135)">
		<path
			d="M158.375 41.3781H154.409L157.833 35.818C157.918 35.681 157.917 35.513 157.831 35.3765C157.745 35.2401 157.588 35.1562 157.417 35.1562H151.667C151.46 35.1562 151.277 35.2781 151.212 35.4586L148.337 43.4498C148.288 43.5845 148.313 43.7331 148.403 43.8484C148.493 43.9638 148.638 44.032 148.792 44.032H152.857L150.268 49.6376C150.175 49.8367 150.253 50.0687 150.452 50.1848C150.647 50.3 150.909 50.2697 151.066 50.1055L158.733 42.1143C158.859 41.9843 158.89 41.798 158.812 41.6395C158.735 41.4805 158.564 41.3781 158.375 41.3781Z"
			fill="white" />
	</g>
	<defs>
		<linearGradient id="paint0_linear_6163_155135" x1="137.167" y1="147.322" x2="143.362"
			y2="130.296" gradientUnits="userSpaceOnUse">
			<stop stop-color="#53E5D6" />
			<stop offset="0.8695" stop-color="#40BAD6" />
		</linearGradient>
		<linearGradient id="paint1_linear_6163_155135" x1="138.573" y1="26.2378" x2="169.203"
			y2="49.4405" gradientUnits="userSpaceOnUse">
			<stop stop-color="#53E5D6" />
			<stop offset="0.8695" stop-color="#40BAD6" />
		</linearGradient>
	</defs>
</svg>